<?xml version="1.0"?>
<svg xmlns="http://www.w3.org/2000/svg" height="512px" viewBox="0 0 496 496" width="512px"><g><path d="m208 280c0 22.089844 17.910156 40 40 40s40-17.910156 40-40-17.910156-40-40-40c-22.082031.027344-39.972656 17.917969-40 40zm64 0c0 13.253906-10.746094 24-24 24s-24-10.746094-24-24 10.746094-24 24-24 24 10.746094 24 24zm0 0" data-original="#000000" class="active-path" data-old_color="#000000" fill="#FFFFFF"/><path d="m248 328c-4.417969 0-8 3.582031-8 8v8c0 4.417969 3.582031 8 8 8s8-3.582031 8-8v-8c0-4.417969-3.582031-8-8-8zm0 0" data-original="#000000" class="active-path" data-old_color="#000000" fill="#FFFFFF"/><path d="m255.03125 124.191406c-1.523438-2.410156-4.179688-3.871094-7.03125-3.871094s-5.507812 1.460938-7.03125 3.871094l-104 192c-1.363281 2.515625-1.28125 5.5625.214844 8l56.503906 91.808594h-9.6875c-4.417969 0-8 3.582031-8 8v24h-16c-4.417969 0-8 3.582031-8 8v32c0 4.417969 3.582031 8 8 8h176c4.417969 0 8-3.582031 8-8v-32c0-4.417969-3.582031-8-8-8h-16v-24c0-4.417969-3.582031-8-8-8h-2.609375l49.648437-92.207031c1.28125-2.371094 1.28125-5.230469 0-7.601563zm72.96875 355.808594h-160v-16h160zm-136-32v-16h112v16zm99.199219-32h-35.199219v-48c0-4.417969-3.582031-8-8-8s-8 3.582031-8 8v48h-27.527344l-59.199218-96.257812 94.726562-174.941407 94.902344 175.199219zm0 0" data-original="#000000" class="active-path" data-old_color="#000000" fill="#FFFFFF"/><path d="m488 224h-8.199219c-4.320312-112.925781-94.875-203.480469-207.800781-207.800781v-8.199219c0-4.417969-3.582031-8-8-8h-32c-4.417969 0-8 3.582031-8 8v8.199219c-112.925781 4.320312-203.480469 94.875-207.800781 207.800781h-8.199219c-4.417969 0-8 3.582031-8 8v32c0 4.417969 3.582031 8 8 8h32c4.417969 0 8-3.582031 8-8v-32c0-4.417969-3.582031-8-8-8h-7.800781c4.296875-104.097656 87.703125-187.503906 191.800781-191.800781v7.800781c0 4.417969 3.582031 8 8 8h32c4.417969 0 8-3.582031 8-8v-7.800781c104.097656 4.296875 187.503906 87.703125 191.800781 191.800781h-7.800781c-4.417969 0-8 3.582031-8 8v32c0 4.417969 3.582031 8 8 8h32c4.417969 0 8-3.582031 8-8v-32c0-4.417969-3.582031-8-8-8zm-456 32h-16v-16h16zm224-224h-16v-16h16zm224 224h-16v-16h16zm0 0" data-original="#000000" class="active-path" data-old_color="#000000" fill="#FFFFFF"/></g> </svg>
